<?xml version="1.0" encoding="UTF-8"?>
<svg xmlns="http://www.w3.org/2000/svg" xmlns:xlink="http://www.w3.org/1999/xlink" viewBox="0 0 75 75" width="50px" height="50px">
<g id="surface42101365">
<path style=" stroke:none;fill-rule:nonzero;fill:rgb(100%,100%,100%);fill-opacity:1;" d="M 37.5 12 C 51.582031 12 63 23.417969 63 37.5 C 63 48.820312 55.617188 58.414062 45.40625 61.746094 C 45.410156 61.734375 45.414062 61.71875 45.414062 61.71875 C 45.414062 61.71875 43.695312 60.914062 43.730469 59.472656 C 43.769531 57.890625 43.730469 54.191406 43.730469 52.835938 C 43.730469 50.503906 42.253906 48.851562 42.253906 48.851562 C 42.253906 48.851562 53.820312 48.984375 53.820312 36.644531 C 53.820312 31.882812 51.328125 29.40625 51.328125 29.40625 C 51.328125 29.40625 52.636719 24.324219 50.878906 22.171875 C 48.90625 21.957031 45.375 24.054688 43.863281 25.035156 C 43.863281 25.035156 41.476562 24.054688 37.5 24.054688 C 33.523438 24.054688 31.132812 25.035156 31.132812 25.035156 C 29.625 24.054688 26.09375 21.957031 24.121094 22.171875 C 22.359375 24.324219 23.667969 29.40625 23.667969 29.40625 C 23.667969 29.40625 21.179688 31.886719 21.179688 36.644531 C 21.179688 48.984375 32.742188 48.851562 32.742188 48.851562 C 32.742188 48.851562 31.578125 50.171875 31.324219 52.105469 C 30.515625 52.378906 29.328125 52.71875 28.371094 52.71875 C 25.859375 52.71875 23.949219 50.277344 23.25 49.148438 C 22.5625 48.035156 21.148438 47.101562 19.828125 47.101562 C 18.960938 47.101562 18.539062 47.535156 18.539062 48.03125 C 18.539062 48.527344 19.753906 48.875 20.558594 49.792969 C 22.253906 51.734375 22.222656 56.097656 28.257812 56.097656 C 28.914062 56.097656 30.25 55.9375 31.257812 55.800781 C 31.25 57.175781 31.25 58.621094 31.269531 59.46875 C 31.304688 60.910156 29.585938 61.71875 29.585938 61.71875 C 29.585938 61.71875 29.589844 61.734375 29.59375 61.742188 C 19.382812 58.414062 12 48.820312 12 37.5 C 12 23.417969 23.417969 12 37.5 12 Z M 37.5 12 "/>
</g>
</svg>
