<?xml version="1.0" encoding="UTF-8"?>
<svg xmlns="http://www.w3.org/2000/svg" xmlns:xlink="http://www.w3.org/1999/xlink" viewBox="0 0 75 75" width="50px" height="50px">
<g id="surface42190377">
<path style=" stroke:none;fill-rule:nonzero;fill:rgb(100%,100%,100%);fill-opacity:1;" d="M 48.34375 15 C 59.152344 15 60 15.847656 60 26.65625 L 60 48.414062 C 60 59.160156 59.160156 60 48.414062 60 L 26.585938 60 C 15.839844 60 15 59.160156 15 48.414062 L 15 26.585938 C 15 15.839844 15.839844 15 26.585938 15 Z M 29.65625 49.875 L 29.65625 31.570312 L 23.96875 31.570312 L 23.96875 49.875 Z M 26.8125 28.949219 C 28.640625 28.949219 30.128906 27.464844 30.128906 25.632812 C 30.128906 23.804688 28.640625 22.316406 26.8125 22.316406 C 24.980469 22.316406 23.496094 23.800781 23.496094 25.632812 C 23.496094 27.460938 24.980469 28.949219 26.8125 28.949219 Z M 51 49.875 L 51 39.835938 C 51 34.90625 49.933594 31.113281 44.175781 31.113281 C 41.40625 31.113281 39.550781 32.632812 38.792969 34.070312 L 38.714844 34.070312 L 38.714844 31.570312 L 33.257812 31.570312 L 33.257812 49.875 L 38.941406 49.875 L 38.941406 40.816406 C 38.941406 38.429688 39.394531 36.117188 42.355469 36.117188 C 45.273438 36.117188 45.3125 38.851562 45.3125 40.972656 L 45.3125 49.875 Z M 51 49.875 "/>
</g>
</svg>
